<svg xmlns="http://www.w3.org/2000/svg" xmlns:xlink="http://www.w3.org/1999/xlink" width="500" zoomAndPan="magnify" viewBox="0 0 375 374.999991" height="500" preserveAspectRatio="xMidYMid meet" version="1.0"><defs><g/><clipPath id="716cca40a1"><path d="M 93 64 L 150 64 L 150 122 L 93 122 Z M 93 64 " clip-rule="nonzero"/></clipPath><clipPath id="bb4563cc1a"><path d="M 82.070312 73.585938 L 121.726562 36.929688 L 176.703125 96.414062 L 137.046875 133.066406 Z M 82.070312 73.585938 " clip-rule="nonzero"/></clipPath><clipPath id="bcf1319257"><path d="M 82.070312 73.585938 L 121.726562 36.929688 L 176.703125 96.414062 L 137.046875 133.066406 Z M 82.070312 73.585938 " clip-rule="nonzero"/></clipPath><clipPath id="886c592b9e"><path d="M 122 38 L 179 38 L 179 95 L 122 95 Z M 122 38 " clip-rule="nonzero"/></clipPath><clipPath id="2d65958546"><path d="M 110.75 47.078125 L 150.40625 10.421875 L 205.382812 69.90625 L 165.726562 106.558594 Z M 110.75 47.078125 " clip-rule="nonzero"/></clipPath><clipPath id="d2117770b0"><path d="M 110.75 47.078125 L 150.40625 10.421875 L 205.382812 69.90625 L 165.726562 106.558594 Z M 110.75 47.078125 " clip-rule="nonzero"/></clipPath><clipPath id="59d0695da4"><path d="M 357.945312 80.929688 L 372.984375 80.929688 L 372.984375 95.964844 L 357.945312 95.964844 Z M 357.945312 80.929688 " clip-rule="nonzero"/></clipPath><clipPath id="fe99dac3b1"><path d="M 365.464844 80.929688 C 361.3125 80.929688 357.945312 84.292969 357.945312 88.445312 C 357.945312 92.601562 361.3125 95.964844 365.464844 95.964844 C 369.617188 95.964844 372.984375 92.601562 372.984375 88.445312 C 372.984375 84.292969 369.617188 80.929688 365.464844 80.929688 Z M 365.464844 80.929688 " clip-rule="nonzero"/></clipPath></defs><rect x="-37.5" width="450" fill="#ffffff" y="-37.499999" height="449.999989" fill-opacity="1"/><rect x="-37.5" width="450" fill="#ffffff" y="-37.499999" height="449.999989" fill-opacity="1"/><g clip-path="url(#716cca40a1)"><g clip-path="url(#bb4563cc1a)"><g clip-path="url(#bcf1319257)"><path fill="#18cb96" d="M 149.824219 66.972656 L 101.371094 64.820312 C 92.015625 64.402344 90.433594 82.632812 101.523438 82.933594 L 131.671875 83.75 L 129.367188 114.085938 C 128.667969 123.324219 146.683594 124.300781 147.199219 114.910156 Z M 149.824219 66.972656 " fill-opacity="1" fill-rule="nonzero"/></g></g></g><g clip-path="url(#886c592b9e)"><g clip-path="url(#2d65958546)"><g clip-path="url(#d2117770b0)"><path fill="#18cb96" d="M 178.503906 40.464844 L 130.054688 38.3125 C 120.695312 37.894531 119.113281 56.125 130.203125 56.425781 L 160.351562 57.242188 L 158.046875 87.578125 C 157.347656 96.816406 175.363281 97.792969 175.878906 88.402344 Z M 178.503906 40.464844 " fill-opacity="1" fill-rule="nonzero"/></g></g></g><g clip-path="url(#59d0695da4)"><g clip-path="url(#fe99dac3b1)"><path fill="#18cb96" d="M 357.945312 80.929688 L 372.984375 80.929688 L 372.984375 95.964844 L 357.945312 95.964844 Z M 357.945312 80.929688 " fill-opacity="1" fill-rule="nonzero"/></g></g><g fill="#373643" fill-opacity="1"><g transform="translate(5.558409, 146.832203)"><g><path d="M 49.796875 -23.46875 C 49.796875 -18.644531 48.800781 -14.410156 46.8125 -10.765625 C 44.820312 -7.128906 42.03125 -4.300781 38.4375 -2.28125 C 34.84375 -0.269531 30.640625 0.734375 25.828125 0.734375 C 21.003906 0.734375 16.769531 -0.269531 13.125 -2.28125 C 9.488281 -4.300781 6.660156 -7.128906 4.640625 -10.765625 C 2.628906 -14.410156 1.625 -18.644531 1.625 -23.46875 C 1.625 -28.332031 2.628906 -32.582031 4.640625 -36.21875 C 6.660156 -39.863281 9.488281 -42.691406 13.125 -44.703125 C 16.769531 -46.722656 21.003906 -47.734375 25.828125 -47.734375 C 30.640625 -47.734375 34.84375 -46.722656 38.4375 -44.703125 C 42.03125 -42.691406 44.820312 -39.863281 46.8125 -36.21875 C 48.800781 -32.582031 49.796875 -28.332031 49.796875 -23.46875 Z M 25.828125 -6.78125 C 28.921875 -6.78125 31.609375 -7.484375 33.890625 -8.890625 C 36.179688 -10.296875 37.96875 -12.25 39.25 -14.75 C 40.53125 -17.257812 41.171875 -20.164062 41.171875 -23.46875 C 41.171875 -26.8125 40.53125 -29.734375 39.25 -32.234375 C 37.96875 -34.742188 36.179688 -36.695312 33.890625 -38.09375 C 31.609375 -39.5 28.921875 -40.203125 25.828125 -40.203125 C 22.722656 -40.203125 20.003906 -39.5 17.671875 -38.09375 C 15.335938 -36.695312 13.53125 -34.742188 12.25 -32.234375 C 10.96875 -29.734375 10.328125 -26.8125 10.328125 -23.46875 C 10.328125 -20.164062 10.96875 -17.257812 12.25 -14.75 C 13.53125 -12.25 15.335938 -10.296875 17.671875 -8.890625 C 20.003906 -7.484375 22.722656 -6.78125 25.828125 -6.78125 Z M 25.828125 -6.78125 "/></g></g></g><g fill="#373643" fill-opacity="1"><g transform="translate(57.706204, 146.832203)"><g><path d="M 19.921875 -37.546875 C 21.242188 -37.546875 22.300781 -37.265625 23.09375 -36.703125 C 23.882812 -36.140625 24.28125 -35.21875 24.28125 -33.9375 C 24.28125 -32.757812 23.882812 -31.828125 23.09375 -31.140625 C 22.300781 -30.453125 21.242188 -30.109375 19.921875 -30.109375 C 16.816406 -30.109375 14.640625 -29 13.390625 -26.78125 C 12.140625 -24.570312 11.515625 -21.570312 11.515625 -17.78125 L 11.515625 -3.765625 C 11.515625 -2.679688 11.117188 -1.78125 10.328125 -1.0625 C 9.546875 -0.351562 8.585938 0 7.453125 0 C 6.171875 0 5.132812 -0.351562 4.34375 -1.0625 C 3.5625 -1.78125 3.171875 -2.679688 3.171875 -3.765625 L 3.171875 -33.796875 C 3.171875 -34.972656 3.625 -35.890625 4.53125 -36.546875 C 5.445312 -37.210938 6.421875 -37.546875 7.453125 -37.546875 C 8.484375 -37.546875 9.414062 -37.226562 10.25 -36.59375 C 11.09375 -35.957031 11.515625 -35.023438 11.515625 -33.796875 L 11.515625 -33.34375 C 12.597656 -34.769531 13.847656 -35.828125 15.265625 -36.515625 C 16.691406 -37.203125 18.242188 -37.546875 19.921875 -37.546875 Z M 19.921875 -37.546875 "/></g></g></g><g fill="#373643" fill-opacity="1"><g transform="translate(79.759579, 146.832203)"><g><path d="M 34.3125 -37.546875 C 35.59375 -37.546875 36.613281 -37.191406 37.375 -36.484375 C 38.132812 -35.773438 38.515625 -34.851562 38.515625 -33.71875 L 38.515625 -3.84375 C 38.515625 -2.707031 38.132812 -1.78125 37.375 -1.0625 C 36.613281 -0.351562 35.59375 0 34.3125 0 C 33.082031 0 32.117188 -0.28125 31.421875 -0.84375 C 30.734375 -1.414062 30.316406 -2.164062 30.171875 -3.09375 C 28.503906 -1.769531 26.632812 -0.800781 24.5625 -0.1875 C 22.5 0.425781 20.535156 0.734375 18.671875 0.734375 C 15.128906 0.734375 12.066406 -0.0703125 9.484375 -1.6875 C 6.898438 -3.3125 4.914062 -5.597656 3.53125 -8.546875 C 2.15625 -11.503906 1.46875 -14.953125 1.46875 -18.890625 C 1.46875 -22.722656 2.226562 -26.085938 3.75 -28.984375 C 5.28125 -31.890625 7.410156 -34.164062 10.140625 -35.8125 C 12.867188 -37.46875 16.03125 -38.296875 19.625 -38.296875 C 21.195312 -38.296875 22.941406 -38 24.859375 -37.40625 C 26.773438 -36.8125 28.546875 -35.878906 30.171875 -34.609375 C 30.367188 -35.492188 30.8125 -36.203125 31.5 -36.734375 C 32.1875 -37.273438 33.125 -37.546875 34.3125 -37.546875 Z M 19.546875 -6.71875 C 21.710938 -6.71875 23.800781 -7.195312 25.8125 -8.15625 C 27.832031 -9.113281 29.265625 -10.523438 30.109375 -12.390625 L 30.109375 -25.15625 C 29.171875 -26.976562 27.765625 -28.378906 25.890625 -29.359375 C 24.023438 -30.347656 22.132812 -30.84375 20.21875 -30.84375 C 17.113281 -30.84375 14.613281 -29.707031 12.71875 -27.4375 C 10.832031 -25.175781 9.890625 -22.300781 9.890625 -18.8125 C 9.890625 -15.175781 10.773438 -12.25 12.546875 -10.03125 C 14.316406 -7.820312 16.648438 -6.71875 19.546875 -6.71875 Z M 19.546875 -6.71875 "/></g></g></g><g fill="#373643" fill-opacity="1"><g transform="translate(122.398897, 146.832203)"><g/></g></g><g fill="#373643" fill-opacity="1"><g transform="translate(139.731576, 146.832203)"><g/></g></g><g fill="#373643" fill-opacity="1"><g transform="translate(157.092045, 146.832203)"><g><path d="M 35.5625 -43.390625 C 35.5625 -44.566406 36.039062 -45.460938 37 -46.078125 C 37.957031 -46.691406 38.976562 -47 40.0625 -47 C 41.195312 -47 42.191406 -46.710938 43.046875 -46.140625 C 43.910156 -45.578125 44.34375 -44.660156 44.34375 -43.390625 L 44.34375 -4.421875 C 44.34375 -2.953125 43.828125 -1.847656 42.796875 -1.109375 C 41.765625 -0.367188 40.632812 0 39.40625 0 C 38.5625 0 37.734375 -0.195312 36.921875 -0.59375 C 36.109375 -0.988281 35.457031 -1.503906 34.96875 -2.140625 L 12.390625 -31.203125 L 12.6875 -27.078125 L 12.6875 -3.90625 C 12.6875 -2.53125 12.226562 -1.535156 11.3125 -0.921875 C 10.40625 -0.304688 9.414062 0 8.34375 0 C 7.207031 0 6.179688 -0.304688 5.265625 -0.921875 C 4.359375 -1.535156 3.90625 -2.53125 3.90625 -3.90625 L 3.90625 -42.5 C 3.90625 -43.976562 4.359375 -45.097656 5.265625 -45.859375 C 6.179688 -46.617188 7.226562 -47 8.40625 -47 C 9.34375 -47 10.144531 -46.8125 10.8125 -46.4375 C 11.476562 -46.070312 12.101562 -45.519531 12.6875 -44.78125 L 35.859375 -14.6875 L 35.5625 -19.625 Z M 35.5625 -43.390625 "/></g></g></g><g fill="#373643" fill-opacity="1"><g transform="translate(205.256757, 146.832203)"><g><path d="M 21.09375 -6.5625 C 22.519531 -6.5625 23.921875 -6.757812 25.296875 -7.15625 C 26.679688 -7.550781 27.960938 -8.21875 29.140625 -9.15625 C 30.273438 -10.1875 31.382812 -10.664062 32.46875 -10.59375 C 33.550781 -10.519531 34.445312 -10.125 35.15625 -9.40625 C 35.875 -8.695312 36.234375 -7.8125 36.234375 -6.75 C 36.234375 -5.695312 35.710938 -4.675781 34.671875 -3.6875 C 32.953125 -2.019531 30.910156 -0.851562 28.546875 -0.1875 C 26.191406 0.476562 23.785156 0.785156 21.328125 0.734375 C 17.484375 0.734375 14.097656 -0.0507812 11.171875 -1.625 C 8.242188 -3.195312 5.957031 -5.382812 4.3125 -8.1875 C 2.664062 -10.988281 1.84375 -14.234375 1.84375 -17.921875 C 1.84375 -21.960938 2.628906 -25.503906 4.203125 -28.546875 C 5.773438 -31.597656 8 -33.984375 10.875 -35.703125 C 13.757812 -37.429688 17.164062 -38.296875 21.09375 -38.296875 C 25.03125 -38.296875 28.375 -37.492188 31.125 -35.890625 C 33.882812 -34.296875 35.988281 -32.054688 37.4375 -29.171875 C 38.894531 -26.296875 39.625 -22.941406 39.625 -19.109375 C 39.625 -17.878906 39.375 -16.832031 38.875 -15.96875 C 38.382812 -15.113281 37.082031 -14.6875 34.96875 -14.6875 L 10.40625 -14.6875 C 11.09375 -12.269531 12.394531 -10.3125 14.3125 -8.8125 C 16.226562 -7.3125 18.488281 -6.5625 21.09375 -6.5625 Z M 21.171875 -30.984375 C 18.316406 -30.984375 15.929688 -30.085938 14.015625 -28.296875 C 12.097656 -26.503906 10.867188 -24.15625 10.328125 -21.25 L 31.796875 -21.25 C 31.554688 -24.15625 30.597656 -26.503906 28.921875 -28.296875 C 27.242188 -30.085938 24.660156 -30.984375 21.171875 -30.984375 Z M 21.171875 -30.984375 "/></g></g></g><g fill="#373643" fill-opacity="1"><g transform="translate(248.1107, 146.832203)"><g><path d="M 34.09375 -7.015625 C 35.070312 -5.929688 35.523438 -4.847656 35.453125 -3.765625 C 35.378906 -2.679688 34.972656 -1.78125 34.234375 -1.0625 C 33.492188 -0.351562 32.609375 0 31.578125 0 C 30.441406 0 29.335938 -0.539062 28.265625 -1.625 L 17.703125 -13.0625 L 7.234375 -1.765625 C 6.097656 -0.585938 4.867188 0 3.546875 0 C 2.554688 0 1.691406 -0.328125 0.953125 -0.984375 C 0.222656 -1.648438 -0.164062 -2.488281 -0.21875 -3.5 C -0.269531 -4.507812 0.195312 -5.554688 1.1875 -6.640625 L 12.546875 -18.890625 L 1.46875 -30.84375 C 0.488281 -31.925781 0.0195312 -32.984375 0.0625 -34.015625 C 0.113281 -35.046875 0.519531 -35.890625 1.28125 -36.546875 C 2.050781 -37.210938 2.953125 -37.546875 3.984375 -37.546875 C 4.617188 -37.546875 5.269531 -37.398438 5.9375 -37.109375 C 6.601562 -36.816406 7.253906 -36.328125 7.890625 -35.640625 L 17.859375 -24.9375 L 27.96875 -35.78125 C 28.550781 -36.425781 29.160156 -36.878906 29.796875 -37.140625 C 30.441406 -37.410156 31.0625 -37.546875 31.65625 -37.546875 C 32.6875 -37.546875 33.570312 -37.226562 34.3125 -36.59375 C 35.050781 -35.957031 35.441406 -35.132812 35.484375 -34.125 C 35.535156 -33.113281 35.046875 -32.046875 34.015625 -30.921875 L 22.953125 -19.03125 Z M 34.09375 -7.015625 "/></g></g></g><g fill="#373643" fill-opacity="1"><g transform="translate(283.662317, 146.832203)"><g><path d="M 20.296875 -7.015625 C 21.421875 -7.648438 22.4375 -7.867188 23.34375 -7.671875 C 24.257812 -7.472656 25 -7.039062 25.5625 -6.375 C 26.125 -5.71875 26.40625 -4.945312 26.40625 -4.0625 C 26.40625 -3.414062 26.207031 -2.773438 25.8125 -2.140625 C 25.425781 -1.503906 24.816406 -0.960938 23.984375 -0.515625 C 22.898438 0.078125 21.914062 0.429688 21.03125 0.546875 C 20.144531 0.671875 19.109375 0.734375 17.921875 0.734375 C 14.734375 0.734375 12.273438 0.0703125 10.546875 -1.25 C 8.828125 -2.582031 7.644531 -4.304688 7 -6.421875 C 6.363281 -8.535156 6.046875 -10.773438 6.046875 -13.140625 L 6.046875 -30.546875 L 3.25 -30.546875 C 1.875 -30.546875 0.851562 -30.914062 0.1875 -31.65625 C -0.476562 -32.394531 -0.8125 -33.179688 -0.8125 -34.015625 C -0.8125 -34.898438 -0.46875 -35.707031 0.21875 -36.4375 C 0.90625 -37.175781 1.914062 -37.546875 3.25 -37.546875 L 6.046875 -37.546875 L 6.046875 -43.90625 C 6.046875 -45.175781 6.460938 -46.128906 7.296875 -46.765625 C 8.140625 -47.410156 9.101562 -47.734375 10.1875 -47.734375 C 11.21875 -47.734375 12.175781 -47.410156 13.0625 -46.765625 C 13.945312 -46.128906 14.390625 -45.175781 14.390625 -43.90625 L 14.390625 -37.546875 L 20.140625 -37.546875 C 21.421875 -37.546875 22.40625 -37.175781 23.09375 -36.4375 C 23.78125 -35.707031 24.125 -34.898438 24.125 -34.015625 C 24.125 -33.128906 23.78125 -32.328125 23.09375 -31.609375 C 22.40625 -30.898438 21.421875 -30.546875 20.140625 -30.546875 L 14.390625 -30.546875 L 14.390625 -13.140625 C 14.390625 -12.054688 14.460938 -11.007812 14.609375 -10 C 14.753906 -8.988281 15.082031 -8.148438 15.59375 -7.484375 C 16.113281 -6.828125 16.890625 -6.5 17.921875 -6.5 C 18.316406 -6.5 18.75 -6.554688 19.21875 -6.671875 C 19.6875 -6.796875 20.046875 -6.910156 20.296875 -7.015625 Z M 20.296875 -7.015625 "/></g></g></g><g fill="#373643" fill-opacity="1"><g transform="translate(309.256217, 146.832203)"><g><path d="M 24.125 -47.734375 C 24.914062 -47.734375 25.65625 -47.570312 26.34375 -47.25 C 27.03125 -46.9375 27.546875 -46.410156 27.890625 -45.671875 L 48.765625 -4.71875 C 49.410156 -3.632812 49.582031 -2.6875 49.28125 -1.875 C 48.988281 -1.0625 48.421875 -0.425781 47.578125 0.03125 C 46.742188 0.5 45.863281 0.734375 44.9375 0.734375 C 44.25 0.734375 43.546875 0.546875 42.828125 0.171875 C 42.117188 -0.191406 41.566406 -0.71875 41.171875 -1.40625 L 36 -11.65625 L 12.25 -11.65625 L 7.078125 -1.40625 C 6.734375 -0.613281 6.203125 -0.0625 5.484375 0.25 C 4.773438 0.570312 4.078125 0.734375 3.390625 0.734375 C 2.554688 0.734375 1.734375 0.5 0.921875 0.03125 C 0.109375 -0.425781 -0.476562 -1.0625 -0.84375 -1.875 C -1.21875 -2.6875 -1.179688 -3.5625 -0.734375 -4.5 L 20.296875 -45.671875 C 20.679688 -46.503906 21.179688 -47.054688 21.796875 -47.328125 C 22.410156 -47.597656 23.1875 -47.734375 24.125 -47.734375 Z M 24.125 -35.265625 L 15.859375 -18.8125 L 32.390625 -18.8125 Z M 24.125 -35.265625 "/></g></g></g><g fill="#373643" fill-opacity="1"><g transform="translate(357.863494, 146.832203)"><g><path d="M 3.3125 -43.015625 C 3.3125 -44.390625 3.753906 -45.394531 4.640625 -46.03125 C 5.523438 -46.675781 6.507812 -47 7.59375 -47 C 8.675781 -47 9.671875 -46.675781 10.578125 -46.03125 C 11.492188 -45.394531 11.953125 -44.390625 11.953125 -43.015625 L 11.953125 -3.765625 C 11.953125 -2.535156 11.492188 -1.597656 10.578125 -0.953125 C 9.671875 -0.316406 8.675781 0 7.59375 0 C 6.507812 0 5.523438 -0.304688 4.640625 -0.921875 C 3.753906 -1.535156 3.3125 -2.484375 3.3125 -3.765625 Z M 3.3125 -43.015625 "/></g></g></g></svg>